<svg width="73" height="10" viewBox="0 0 73 10" fill="none" xmlns="http://www.w3.org/2000/svg">
<path d="M0.733887 9.36719H1.24951V7.15234H1.26514C1.48779 7.69531 2.00342 8.07422 2.65186 8.07422C3.67139 8.07422 4.3667 7.24609 4.3667 5.97266V5.96875C4.3667 4.69922 3.67529 3.86328 2.64404 3.86328C1.9917 3.86328 1.4917 4.24609 1.26514 4.79688H1.24951V3.9375H0.733887V9.36719ZM2.5542 7.61328C1.79248 7.61328 1.24951 6.95312 1.24951 5.97266V5.96875C1.24951 4.98438 1.78857 4.32422 2.5542 4.32422C3.33545 4.32422 3.83936 4.96484 3.83936 5.96875V5.97266C3.83936 6.96875 3.33545 7.61328 2.5542 7.61328ZM6.71045 8.07422C7.81592 8.07422 8.56201 7.26172 8.56201 5.96875V5.96094C8.56201 4.66797 7.81201 3.86328 6.71045 3.86328C5.60498 3.86328 4.85889 4.67188 4.85889 5.96094V5.96875C4.85889 7.25781 5.60107 8.07031 6.71045 8.07422ZM6.71436 7.61328C5.91357 7.60938 5.39014 7 5.39014 5.96875V5.96094C5.39014 4.9375 5.91748 4.32422 6.71045 4.32422C7.50342 4.32422 8.03467 4.93359 8.03467 5.96094V5.96875C8.03467 6.99609 7.50732 7.61328 6.71436 7.61328ZM10.0347 8H10.5815L11.5894 4.62891H11.6011L12.6128 8H13.1597L14.312 3.9375H13.7925L12.8823 7.42188H12.8706L11.8589 3.9375H11.3354L10.3237 7.42188H10.312L9.40186 3.9375H8.87842L10.0347 8ZM16.48 8.07422C17.3589 8.07422 18.0073 7.57031 18.1479 6.875L18.1558 6.83594H17.644L17.6362 6.87109C17.5034 7.3125 17.0894 7.61328 16.4917 7.61328C15.6909 7.61328 15.1714 7.0625 15.1558 6.09375H18.2065V5.89062C18.2065 4.67578 17.5229 3.86328 16.437 3.86328C15.3511 3.86328 14.6323 4.70312 14.6323 5.97656V5.98047C14.6323 7.26562 15.3394 8.07422 16.48 8.07422ZM16.4331 4.32422C17.1284 4.32422 17.6284 4.79688 17.687 5.68359H15.1636C15.2261 4.82031 15.7417 4.32422 16.4331 4.32422ZM18.8979 8H19.4136V5.46094C19.4136 4.80859 19.7808 4.35938 20.3589 4.35938C20.5347 4.35938 20.6792 4.38672 20.7456 4.41406V3.91016C20.6831 3.89062 20.562 3.86328 20.4253 3.86328C19.9214 3.86328 19.5464 4.16016 19.4019 4.64453H19.3862V3.9375H18.8979V8ZM22.7144 8.07422C23.5933 8.07422 24.2417 7.57031 24.3823 6.875L24.3901 6.83594H23.8784L23.8706 6.87109C23.7378 7.3125 23.3237 7.61328 22.7261 7.61328C21.9253 7.61328 21.4058 7.0625 21.3901 6.09375H24.4409V5.89062C24.4409 4.67578 23.7573 3.86328 22.6714 3.86328C21.5854 3.86328 20.8667 4.70312 20.8667 5.97656V5.98047C20.8667 7.26562 21.5737 8.07422 22.7144 8.07422ZM22.6675 4.32422C23.3628 4.32422 23.8628 4.79688 23.9214 5.68359H21.3979C21.4604 4.82031 21.9761 4.32422 22.6675 4.32422ZM26.6479 8.07422C27.2886 8.07422 27.7964 7.71484 28.0308 7.15625H28.0464V8H28.5659V2.36328H28.0464V4.78516H28.0347C27.8042 4.22266 27.2808 3.86328 26.644 3.86328C25.6284 3.86328 24.9292 4.69531 24.9292 5.96484V5.96875C24.9292 7.23828 25.6245 8.07422 26.6479 8.07422ZM26.7456 7.61328C25.9644 7.61328 25.4604 6.97266 25.4604 5.96875V5.96484C25.4604 4.96875 25.9644 4.32422 26.7456 4.32422C27.5034 4.32422 28.0503 4.98828 28.0503 5.96484V5.96875C28.0503 6.94922 27.5112 7.61328 26.7456 7.61328ZM33.0854 8.07422C34.1089 8.07422 34.8042 7.23828 34.8042 5.96875V5.96484C34.8042 4.69531 34.105 3.86328 33.0894 3.86328C32.4526 3.86328 31.9292 4.22266 31.6987 4.78516H31.687V2.36328H31.1675V8H31.687V7.14062H31.6987C31.9331 7.71484 32.4448 8.07422 33.0854 8.07422ZM32.9878 7.61328C32.2222 7.61328 31.6831 6.94922 31.6831 5.96875V5.96484C31.6831 4.98828 32.23 4.32422 32.9878 4.32422C33.769 4.32422 34.2729 4.96875 34.2729 5.96484V5.96875C34.2729 6.97266 33.769 7.61328 32.9878 7.61328ZM35.644 9.36719C36.3394 9.36719 36.6714 9.04688 36.9409 8.32422L38.5698 3.9375H38.0229L36.7886 7.48438H36.7729L35.5425 3.9375H34.9878L36.5151 8.02734L36.4175 8.28906C36.2378 8.78516 35.9995 8.93359 35.5425 8.93359C35.4761 8.93359 35.4097 8.92578 35.3589 8.91797V9.34375C35.4331 9.35547 35.5425 9.36719 35.644 9.36719ZM46.1197 0.795C43.0287 0.795 41.2467 1.818 41.2467 3.501C41.2467 4.392 41.7747 5.294 43.0727 5.481L43.6227 4.205C43.2047 4.139 43.0067 3.908 43.0067 3.501C43.0067 2.94 43.4247 2.434 44.8107 2.28L43.6887 8H45.4927L45.8887 5.987C46.1197 5.998 46.3287 6.009 46.5047 6.009C49.1887 6.009 50.2007 4.557 50.2007 3.138C50.2007 1.433 48.6827 0.795 46.1197 0.795ZM46.5487 4.546C46.4497 4.546 46.3177 4.546 46.1637 4.535L46.6147 2.258C47.7697 2.313 48.3527 2.555 48.3527 3.248C48.3527 4.194 47.3737 4.546 46.5487 4.546ZM50.3566 6.229C50.1476 7.406 50.6536 8.165 51.9296 8.165C52.8976 8.165 53.5246 7.934 54.0416 7.681L54.3276 5.965C53.9536 6.251 53.4916 6.581 52.6446 6.614C52.1606 6.636 52.0946 6.35 52.1826 5.844L53.1176 0.542H51.3576L50.3566 6.229ZM59.2157 6.658C58.8087 6.658 58.5447 6.537 58.6437 5.998L59.1827 2.907H57.8957C57.7747 2.984 57.6757 3.072 57.5987 3.171C57.2137 2.885 56.6967 2.742 56.1907 2.742C54.3647 2.742 53.2757 4.183 53.2757 5.921C53.2757 7.417 54.1777 8.165 55.3437 8.165C56.0587 8.165 56.5977 7.912 57.0377 7.406C57.3677 7.912 58.0717 8.165 58.7207 8.165C59.5127 8.165 60.1947 7.89 60.6017 7.571L60.7997 5.899C60.3707 6.317 59.7657 6.658 59.2157 6.658ZM55.9377 6.768C55.4097 6.768 55.1347 6.416 55.1347 5.789C55.1347 4.7 55.7397 4.106 56.4547 4.106C56.7187 4.106 56.9827 4.183 57.2027 4.282L56.8727 6.119C56.5647 6.603 56.2237 6.768 55.9377 6.768ZM63.2177 6.713C62.3927 6.68 62.0297 6.504 61.5787 6.427L64.3067 4.073L64.5047 2.907H60.1817L59.9177 4.348H62.0627L59.0377 7.021L59.4887 8.022C59.8627 7.934 60.1267 7.802 60.5557 7.802C61.3367 7.802 61.9087 8.286 63.0857 8.286C63.5257 8.286 64.5157 8.275 65.0547 7.384L65.2637 5.91C64.6697 6.614 64.0317 6.746 63.2177 6.713ZM70.5594 6.658C70.1524 6.658 69.8884 6.537 69.9874 5.998L70.5264 2.907H69.2394C69.1184 2.984 69.0194 3.072 68.9424 3.171C68.5574 2.885 68.0404 2.742 67.5344 2.742C65.7084 2.742 64.6194 4.183 64.6194 5.921C64.6194 7.417 65.5214 8.165 66.6874 8.165C67.4024 8.165 67.9414 7.912 68.3814 7.406C68.7114 7.912 69.4154 8.165 70.0644 8.165C70.8564 8.165 71.5384 7.89 71.9454 7.571L72.1434 5.899C71.7144 6.317 71.1094 6.658 70.5594 6.658ZM67.2814 6.768C66.7534 6.768 66.4784 6.416 66.4784 5.789C66.4784 4.7 67.0834 4.106 67.7984 4.106C68.0624 4.106 68.3264 4.183 68.5464 4.282L68.2164 6.119C67.9084 6.603 67.5674 6.768 67.2814 6.768Z" fill="#A1A1A1"/>
</svg>
